<?xml version="1.0" encoding="UTF-8"?>
<svg id="Layer_2" data-name="Layer 2" xmlns="http://www.w3.org/2000/svg" viewBox="0 0 492.26 496.83">
  <defs>
    <style>
      .cls-1 {
        fill: #fff;
      }
    </style>
  </defs>
  <g id="Layer_1-2" data-name="Layer 1">
    <path class="cls-1" d="M405.6,253.33l9.56-27.13c.74.06,1.47.1,2.22.1,14.85,0,26.88-12.04,26.88-26.89,0-7.13-2.83-13.96-7.87-19-10.5-10.5-27.51-10.5-38.01,0-5.04,5.04-7.88,11.88-7.88,19.02,0,.75.04,1.49.1,2.23l-27.12,9.56c-16.6-14.59-33.06-26.82-47.83-35.43-24.35-14.19-41.14-16.95-49.89-8.19-49.62,49.65-50.54,129.82-2.78,180.58l-37.39,135.09h-14.49l-22.42-109c-.04-.24-.09-.48-.15-.72l-5.79-28.14c-.02-.13-.05-.26-.08-.39l-30.54-148.51c-.04-.25-.09-.5-.15-.74l-19.21-93.42c17.96-7.29,26.61-27.75,19.33-45.71-7.29-17.96-27.75-26.61-45.71-19.33-17.96,7.29-26.61,27.75-19.33,45.71,3.46,8.54,10.15,15.37,18.61,19.03l-19.09,93.71c-.06.24-.11.49-.15.74l-9.35,45.89c-.08.29-.14.59-.18.89l-5.35,26.28c-.07.26-.13.53-.16.8l-15.17,74.45v.02l-28.2,138.42H6.79c-3.75,0-6.79,3.04-6.79,6.79s3.04,6.79,6.79,6.79h378.8c3.75,0,6.79-3.04,6.79-6.79s-3.04-6.79-6.79-6.79h-42.06l-27.98-101.12c46.84,15.9,98.64,3.85,133.66-31.09,8.75-8.75,6-25.54-8.19-49.89-8.61-14.77-20.83-31.22-35.41-47.82h0ZM407.97,190.01c5.2-5.19,13.61-5.19,18.8,0,5.19,5.19,5.2,13.61,0,18.8-5.19,5.19-13.61,5.2-18.8,0-1.4-1.4-2.47-3.1-3.14-4.97v-.02s-.02-.03-.02-.03c-1.69-4.82-.47-10.18,3.14-13.79h0ZM395.09,214.46c1.93,2.85,4.39,5.31,7.24,7.24l-7.12,20.22c-3.25-3.46-6.59-6.9-10.01-10.33-3.42-3.43-6.86-6.76-10.32-10l20.21-7.13ZM308.8,187.51c12.35,7.19,25.98,17.1,39.91,28.89l-25.73,9.07c-3.54,1.25-5.4,5.13-4.15,8.67,1.25,3.54,5.13,5.4,8.67,4.15l32.9-11.6c5.08,4.63,10.14,9.47,15.19,14.5,5.05,5.04,9.89,10.11,14.53,15.21l-11.59,32.89c-1.25,3.54.61,7.42,4.15,8.67,3.54,1.25,7.42-.61,8.67-4.15l9.06-25.71c11.79,13.92,21.68,27.55,28.88,39.89,13.21,22.67,11.94,31.81,10.33,33.43h0c-1.63,1.61-10.78,2.87-33.42-10.32-20.25-11.8-43.97-30.87-66.8-53.69-14.19-14.08-27.33-29.18-39.31-45.18-.15-.24-.33-.47-.51-.69-4.98-6.73-9.61-13.71-13.86-20.92-12.75-21.87-12.01-31.16-10.49-33.23.06-.06.11-.12.17-.18.04-.04.07-.08.11-.13,1.87-1.55,11.1-2.52,33.32,10.43h0ZM275.36,341.42c-10-9.99-11.23-27.67-4.81-48.41,14.01,21.12,32.11,39.21,53.23,53.23-7.6,2.48-15.52,3.81-23.5,3.96-10.36,0-18.99-2.85-24.92-8.78h0ZM304.11,312.68c-10.66-10.59-19.87-22.55-27.4-35.56,4.92-10.5,10.84-20.51,17.68-29.89,10.97,13.97,22.78,27.26,35.37,39.79,12.54,12.59,25.83,24.41,39.81,35.38-9.38,6.83-19.39,12.75-29.89,17.68-13.01-7.52-24.98-16.74-35.57-27.4ZM263.61,195.75c2.73,7.56,6.2,14.83,10.34,21.72,3.43,5.89,7.45,12.05,11.95,18.38-6.24,8.26-11.84,16.98-16.77,26.09-3.36-7.8-5.9-15.93-7.59-24.26-3.12-15.73-2.35-30.03,2.06-41.93h0ZM380.97,330.9c6.32,4.5,12.48,8.52,18.36,11.94,6.89,4.15,14.17,7.61,21.73,10.34-11.9,4.42-26.21,5.18-41.93,2.06-8.34-1.69-16.48-4.23-24.29-7.6,9.12-4.92,17.85-10.52,26.13-16.75h0ZM246.29,225.89c.33,4.84.98,9.66,1.93,14.42,2.69,13.08,7.21,25.72,13.43,37.54-4.7,11.61-7.48,22.76-8.25,32.97-12.99-26.4-15.52-56.74-7.11-84.93h0ZM97.65,209.4l10.34,7.82-14.11,10.66,3.76-18.48ZM165.73,330.1l-35.32-27.14,25.68-19.74,9.64,46.88ZM144.72,227.94l-14.19-10.72,10.37-7.84,3.81,18.56ZM148.87,248.11l4.17,20.31-33.78,25.97-33.65-25.85,4.18-20.53,29.47-22.27,29.61,22.37ZM82.59,283.35l25.52,19.61-34.99,26.9,9.47-46.51ZM61.84,385.22l41.49,19.56-50.31,23.72,8.82-43.29ZM64.63,371.52l4.35-21.34,50.28-38.65,50.65,38.92,4.3,20.91-54.95,25.91-54.63-25.75ZM177.03,385.06l8.99,43.69-50.82-23.96,41.84-19.73ZM98.06,69.84c-.02-11.89,9.59-21.55,21.48-21.57,11.89-.02,21.55,9.59,21.57,21.48.02,11.89-9.59,21.55-21.48,21.57-1.58,0-3.16-.17-4.71-.51-.02,0-.03,0-.05-.01h-.02c-9.81-2.21-16.78-10.91-16.8-20.96ZM119.42,104.91l18.46,89.74-18.61,14.06-18.61-14.06,18.28-89.74c.16,0,.32.01.48.01ZM49.64,445.13l69.63-32.83,70.18,33.09,7.79,37.86H41.87l7.76-38.12ZM329.43,483.25h-89.75l34.46-124.52c7.8,6.57,16.34,12.19,25.46,16.75l29.82,107.77ZM308.62,364.72c-.28-.15-.57-.29-.86-.4-.58-.28-1.16-.56-1.73-.85,4.34-.34,8.65-.99,12.9-1.94,6.84-1.56,13.54-3.7,20.03-6.38,11.82,6.21,24.45,10.73,37.52,13.41,4.84.97,9.73,1.61,14.65,1.94-27.29,8.18-56.63,6.12-82.51-5.79h0ZM470.33,252.36c-2.65,2.65-6.96,2.66-9.61,0s-2.66-6.96,0-9.61h0c24-23.87,24.11-62.67.24-86.67-23.87-24-62.67-24.11-86.67-.24-.08.08-.16.16-.24.24-2.65,2.65-6.96,2.66-9.61,0-2.65-2.65-2.66-6.96,0-9.61,29.24-29.24,76.65-29.24,105.89,0,29.24,29.24,29.24,76.65,0,105.89h0ZM381.42,173.07c-2.65-2.65-2.66-6.95,0-9.61,0,0,0,0,0,0,19.86-19.87,52.07-19.87,71.94,0,19.87,19.86,19.87,52.07,0,71.94-2.65,2.65-6.95,2.65-9.61,0s-2.65-6.95,0-9.61h0c14.56-14.56,14.56-38.16,0-52.72-14.56-14.56-38.16-14.56-52.72,0h0c-2.65,2.65-6.95,2.66-9.61,0,0,0,0,0,0,0h0ZM184.58,11.34c-2.51-2.79-2.29-7.08.5-9.59,2.79-2.51,7.08-2.29,9.59.5,34.56,38.43,34.56,96.75,0,135.18-2.51,2.79-6.81,3.02-9.59.51-2.79-2.51-3.02-6.81-.51-9.59h0c29.91-33.27,29.91-83.73,0-117h0ZM44.43,137.43C9.87,98.99,9.87,40.68,44.43,2.25c2.51-2.79,6.81-3.02,9.6-.51,2.79,2.51,3.02,6.81.51,9.6-29.91,33.27-29.91,83.74,0,117.01,2.51,2.79,2.28,7.09-.52,9.6-2.79,2.51-7.09,2.28-9.6-.52h0ZM45.91,69.84c-.01-18.2,6.73-35.75,18.91-49.27,2.51-2.79,6.81-3.01,9.6-.5,2.79,2.51,3.01,6.81.5,9.6-20.56,22.83-20.56,57.5,0,80.33,2.51,2.79,2.29,7.08-.49,9.6-2.79,2.51-7.08,2.29-9.6-.49-12.19-13.51-18.93-31.06-18.91-49.25ZM164.2,29.66c-2.51-2.79-2.28-7.09.51-9.6,2.79-2.51,7.09-2.28,9.6.51,25.22,28,25.22,70.52,0,98.52-2.51,2.79-6.81,3.01-9.6.49-2.79-2.51-3.01-6.81-.49-9.6,20.55-22.83,20.55-57.5,0-80.33h0Z"/>
  </g>
</svg>