<?xml version="1.0" encoding="UTF-8"?>
<svg id="Layer_2" data-name="Layer 2" xmlns="http://www.w3.org/2000/svg" viewBox="0 0 496 496">
  <defs>
    <style>
      .cls-1 {
        fill: #fff;
      }
    </style>
  </defs>
  <g id="Layer_1-2" data-name="Layer 1">
    <g>
      <path class="cls-1" d="M283.04,226h-16.96l10.48-31.44c1.42-4.18-.82-8.73-5-10.15-.96-.33-1.98-.47-3-.41h-41.52c-3.81-.09-7.16,2.52-8,6.24l-14,63.04c-.53,2.35.03,4.82,1.52,6.72,1.51,1.91,3.81,3.03,6.24,3.04h19.2l-5.68,40c-.52,3.66,1.53,7.19,4.96,8.56.94.37,1.95.56,2.96.56,2.62,0,5.07-1.29,6.56-3.44l48.96-70c1.61-2.37,1.82-5.43.56-8-1.29-2.87-4.14-4.71-7.28-4.72h0ZM246.64,272l2.24-16c.35-2.3-.33-4.64-1.84-6.4-1.53-1.75-3.75-2.74-6.08-2.72h-18l10.48-46.88h24.48l-10.48,31.44c-1.42,4.18.82,8.73,5,10.15.96.33,1.98.47,3,.41h12.56l-21.36,30Z"/>
      <path class="cls-1" d="M144,104c0-22.09-17.91-40-40-40s-40,17.91-40,40,17.91,40,40,40,40-17.91,40-40ZM104,128c-13.25,0-24-10.75-24-24s10.75-24,24-24,24,10.75,24,24-10.75,24-24,24Z"/>
      <path class="cls-1" d="M436.16,367.36c-1.78.41-3.61.63-5.44.64h-86.72v16h86.72c3.12.04,6.24-.31,9.28-1.04,8.45-1.79,15.79-6.96,20.32-14.32,7.85-12.5,4.07-28.99-8.43-36.84-6.31-3.96-13.98-5.11-21.17-3.16-6.12,1.41-11.43,5.21-14.72,10.56-2.9,4.8-3.71,10.58-2.24,16l15.44-4.24c-.38-1.24-.2-2.58.48-3.68,1.09-1.6,2.75-2.72,4.64-3.12,5.69-1.53,11.61,1.52,13.68,7.04.83,3.12.34,6.45-1.36,9.2-2.33,3.72-6.15,6.25-10.48,6.96h0Z"/>
      <path class="cls-1" d="M404.16,439.36c-1.78.41-3.61.63-5.44.64h-86.72v16h86.72c3.12.04,6.24-.31,9.28-1.04,8.45-1.79,15.79-6.96,20.32-14.32,7.85-12.5,4.07-28.99-8.43-36.84-6.31-3.96-13.98-5.11-21.17-3.16-6.12,1.41-11.43,5.21-14.72,10.56-2.9,4.8-3.71,10.58-2.24,16l15.44-4.24c-.38-1.24-.2-2.58.48-3.68,1.09-1.6,2.75-2.72,4.64-3.12,5.69-1.53,11.61,1.52,13.68,7.04.83,3.12.34,6.45-1.36,9.2-2.33,3.72-6.15,6.25-10.48,6.96h0Z"/>
      <path class="cls-1" d="M425.92,181.84c18.65-10.18,30.21-29.79,30.08-51.04,0-17.52-10.32-32-22.32-48.8-10.62-13.78-19.44-28.87-26.24-44.88-1.62-4.11-6.27-6.12-10.38-4.5-2.06.81-3.69,2.44-4.5,4.5-6.8,16.01-15.62,31.1-26.24,44.88-12,16.8-22.32,31.28-22.32,48.8-.14,21.26,11.41,40.87,30.08,51.04,16.2,8.63,35.64,8.63,51.84,0h0ZM360,130.8c0-12.4,8.56-24,19.36-39.52,7.59-10.22,14.48-20.94,20.64-32.08,6.16,11.11,13.06,21.8,20.64,32,10.8,15.28,19.36,27.2,19.36,39.6.22,15.46-8.13,29.77-21.68,37.2-11.47,5.9-25.09,5.9-36.56,0-13.59-7.41-21.96-21.73-21.76-37.2Z"/>
      <path class="cls-1" d="M432,130.8h-16c.23,6.61-3.26,12.79-9.04,16-2.12,1.19-4.53,1.8-6.96,1.76v16c5.06.05,10.06-1.21,14.48-3.68,10.98-5.98,17.73-17.57,17.52-30.08Z"/>
      <path class="cls-1" d="M96,160h16v16h-16v-16Z"/>
      <path class="cls-1" d="M160,96h16v16h-16v-16Z"/>
      <path class="cls-1" d="M32,96h16v16h-16v-16Z"/>
      <path class="cls-1" d="M96,32h16v16h-16v-16Z"/>
      <path class="cls-1" d="M47.38,149.31l11.31-11.31,11.31,11.31-11.31,11.31-11.31-11.31Z"/>
      <path class="cls-1" d="M137.96,149.28l11.31-11.31,11.31,11.31-11.31,11.31-11.31-11.31Z"/>
      <path class="cls-1" d="M47.35,58.72l11.31-11.31,11.31,11.31-11.31,11.31-11.31-11.31Z"/>
      <path class="cls-1" d="M137.94,58.69l11.31-11.31,11.31,11.31-11.31,11.31-11.31-11.31Z"/>
      <path class="cls-1" d="M24,240h96v-16H24c-4.42,0-8-3.58-8-8V24c0-4.42,3.58-8,8-8h192c4.42,0,8,3.58,8,8v96h16V24c0-13.25-10.75-24-24-24H24C10.75,0,0,10.75,0,24v192c0,13.25,10.75,24,24,24Z"/>
      <path class="cls-1" d="M472,0h-192c-13.25,0-24,10.75-24,24v96h16V24c0-4.42,3.58-8,8-8h192c4.42,0,8,3.58,8,8v192c0,4.42-3.58,8-8,8h-96v16h96c13.25,0,24-10.75,24-24V24c0-13.25-10.75-24-24-24Z"/>
      <path class="cls-1" d="M24,496h192c13.25,0,24-10.75,24-24v-96h-16v96c0,4.42-3.58,8-8,8H24c-4.42,0-8-3.58-8-8v-192c0-4.42,3.58-8,8-8h96v-16H24c-13.25,0-24,10.75-24,24v192c0,13.25,10.75,24,24,24Z"/>
      <path class="cls-1" d="M472,256h-96v16h96c4.42,0,8,3.58,8,8v192c0,4.42-3.58,8-8,8h-192c-4.42,0-8-3.58-8-8v-96h-16v96c0,13.25,10.75,24,24,24h192c13.25,0,24-10.75,24-24v-192c0-13.25-10.75-24-24-24Z"/>
      <path class="cls-1" d="M248,136c-61.86,0-112,50.14-112,112s50.14,112,112,112,112-50.14,112-112-50.14-112-112-112ZM248,344c-53.02,0-96-42.98-96-96s42.98-96,96-96,96,42.98,96,96-42.98,96-96,96Z"/>
      <path class="cls-1" d="M55.2,334.08c-3.22-3.02-8.28-2.86-11.31.36-1.07,1.14-1.79,2.58-2.05,4.12-.48,2.64-10.88,65.44,22.96,98.4,14.24,13.11,33.14,19.96,52.48,19.04,9.44-.09,18.84-1.11,28.08-3.04,6.97-1.44,12.15-7.31,12.72-14.4,1.36-16,1.04-68.24-61.2-83.36-15.31-3.81-29.56-11.03-41.68-21.12h0ZM142.32,427.76c-6.32-3.76-12.64-7.68-19.12-11.76l-31.36-17.04c7.45,16.54,19.68,30.47,35.12,40-22.16,2-39.28-2.64-50.96-13.92-19.44-18.4-20.72-51.68-20-70.24,11.31,7.36,23.78,12.77,36.88,16,40.8,9.76,48.72,38.4,49.44,56.96h0Z"/>
    </g>
  </g>
</svg>