<?xml version="1.0" encoding="UTF-8"?>
<svg id="Layer_2" data-name="Layer 2" xmlns="http://www.w3.org/2000/svg" viewBox="0 0 496 496">
  <defs>
    <style>
      .cls-1 {
        fill: #fff;
      }
    </style>
  </defs>
  <g id="Layer_1-2" data-name="Layer 1">
    <g>
      <g id="g1627">
        <g id="path1629">
          <path class="cls-1" d="M370.06,496H9.69C4.34,496,0,491.66,0,486.31v-46.5c0-5.35,4.34-9.69,9.69-9.69h266.73c5.35,0,9.69,4.34,9.69,9.69s-4.34,9.69-9.69,9.69H19.38v27.12h350.69c5.35,0,9.69,4.34,9.69,9.69s-4.34,9.69-9.69,9.69Z"/>
        </g>
      </g>
      <g id="g1631">
        <g id="path1633">
          <path class="cls-1" d="M434,205.38H9.69c-5.35,0-9.69-4.34-9.69-9.69v-52.31c0-3.33,1.71-6.42,4.52-8.2L216.68,1.49c3.16-1.99,7.17-1.99,10.33,0l59.98,37.79c4.53,2.85,5.88,8.83,3.03,13.36-2.85,4.53-8.83,5.88-13.36,3.03l-54.81-34.54L19.38,148.72v37.28h404.94v-37.28l-73.84-46.53c-4.53-2.85-5.88-8.83-3.03-13.36,2.85-4.53,8.83-5.88,13.36-3.03l78.36,49.38c2.82,1.77,4.52,4.87,4.52,8.2v52.31c0,5.35-4.34,9.69-9.69,9.69Z"/>
        </g>
      </g>
      <g id="g1635">
        <g id="path1637">
          <path class="cls-1" d="M30.03,449.5c-5.35,0-9.69-4.34-9.69-9.69v-46.5c0-5.35,4.34-9.69,9.69-9.69h223.78c5.35,0,9.69,4.34,9.69,9.69s-4.34,9.69-9.69,9.69H39.72v36.81c0,5.35-4.34,9.69-9.69,9.69Z"/>
        </g>
      </g>
      <g id="path1639">
        <path class="cls-1" d="M103.66,403h-52.31c-5.35,0-9.69-4.34-9.69-9.69v-197.62c0-5.35,4.34-9.69,9.69-9.69h52.31c5.35,0,9.69,4.34,9.69,9.69v197.62c0,5.35-4.34,9.69-9.69,9.69ZM61.03,383.63h32.94v-178.25h-32.94v178.25Z"/>
      </g>
      <g id="g1641">
        <g id="path1643">
          <path class="cls-1" d="M340.03,266.41c-5.35,0-9.69-4.34-9.69-9.69v-61.03c0-5.35,4.34-9.69,9.69-9.69h52.31c5.35,0,9.69,4.34,9.69,9.69v59.09c0,5.35-4.34,9.69-9.69,9.69s-9.69-4.34-9.69-9.69v-49.41h-32.94v51.34c0,5.35-4.34,9.69-9.69,9.69Z"/>
        </g>
      </g>
      <g id="path1645">
        <path class="cls-1" d="M248,403h-52.31c-5.35,0-9.69-4.34-9.69-9.69v-197.62c0-5.35,4.34-9.69,9.69-9.69h52.31c5.35,0,9.69,4.34,9.69,9.69v197.62c0,5.35-4.34,9.69-9.69,9.69ZM205.38,383.63h32.94v-178.25h-32.94v178.25Z"/>
      </g>
      <g id="g1649">
        <g id="g1655">
          <g id="path1657">
            <path class="cls-1" d="M221.84,158.58c-24.57,0-44.56-19.99-44.56-44.56s19.99-44.56,44.56-44.56,44.56,19.99,44.56,44.56-19.99,44.56-44.56,44.56ZM221.84,88.83c-13.89,0-25.19,11.3-25.19,25.19s11.3,25.19,25.19,25.19,25.19-11.3,25.19-25.19-11.3-25.19-25.19-25.19Z"/>
          </g>
        </g>
        <g id="g1659">
          <g id="path1661">
            <path class="cls-1" d="M370.06,496c-69.44,0-125.94-56.5-125.94-125.94s56.5-125.94,125.94-125.94,125.94,56.5,125.94,125.94-56.5,125.94-125.94,125.94ZM370.06,263.5c-58.76,0-106.56,47.8-106.56,106.56s47.8,106.56,106.56,106.56,106.56-47.8,106.56-106.56-47.8-106.56-106.56-106.56Z"/>
          </g>
        </g>
        <g id="g1663">
          <g id="path1665">
            <path class="cls-1" d="M367.63,439.81c-13.6,0-21.93-1.25-35.59-10.19-4.48-2.93-5.73-8.93-2.8-13.41s8.93-5.73,13.41-2.8c9.82,6.42,14.07,7.11,26.59,7.02,13.88-.09,21.94-10.44,23.55-20.02.64-3.8,1.56-16.61-13.44-21.91-18.62-6.58-29.35-11.72-37.02-17.74-8.8-6.9-12.81-18.92-10.46-31.37,2.57-13.6,12.02-24.4,24.67-28.21,23.43-7.04,42.62,7.22,43.43,7.83,4.26,3.23,5.1,9.31,1.87,13.57-3.22,4.25-9.26,5.1-13.52,1.91-.29-.21-12.45-8.88-26.2-4.75-6.81,2.04-10.25,8.18-11.21,13.24-.99,5.23.34,10.14,3.38,12.53,7.31,5.73,20.03,10.65,31.52,14.71,19.14,6.77,29.38,23.8,26.09,43.39-3,17.86-18.57,36.02-42.53,36.18-.59,0-1.17,0-1.73,0Z"/>
          </g>
        </g>
        <g id="g1667">
          <g id="path1669">
            <path class="cls-1" d="M370.06,457.47c-5.35,0-9.69-4.34-9.69-9.69v-155.44c0-5.35,4.34-9.69,9.69-9.69s9.69,4.34,9.69,9.69v155.44c0,5.35-4.34,9.69-9.69,9.69Z"/>
          </g>
        </g>
        <g id="g1671">
          <g id="path1673">
            <path class="cls-1" d="M318.76,80.44c-.63,0-1.27-.06-1.89-.18-.62-.13-1.23-.32-1.82-.56-.58-.24-1.14-.54-1.67-.89-.53-.35-1.02-.76-1.47-1.2-.45-.45-.85-.94-1.21-1.48-.34-.52-.64-1.08-.89-1.67-.24-.58-.42-1.19-.55-1.81-.12-.62-.19-1.26-.19-1.89s.07-1.27.19-1.9c.13-.61.31-1.22.55-1.81.25-.58.55-1.15.89-1.67.36-.53.76-1.03,1.21-1.47.45-.45.94-.86,1.47-1.21.53-.35,1.09-.65,1.67-.89.59-.24,1.2-.43,1.82-.55,1.25-.25,2.53-.25,3.78,0,.62.12,1.23.31,1.81.55.59.24,1.15.54,1.68.89.53.35,1.02.76,1.47,1.21s.85.94,1.2,1.47c.35.52.65,1.09.89,1.67.25.59.43,1.2.56,1.81.12.63.19,1.27.19,1.9s-.07,1.27-.19,1.89c-.13.62-.31,1.23-.56,1.81-.24.59-.54,1.15-.89,1.67-.35.54-.76,1.03-1.2,1.48-.45.44-.94.85-1.47,1.2-.53.35-1.09.65-1.68.89-.58.24-1.19.43-1.81.56-.62.12-1.26.18-1.89.18Z"/>
          </g>
        </g>
      </g>
    </g>
  </g>
</svg>