<?xml version="1.0" encoding="UTF-8"?>
<svg id="Layer_2" data-name="Layer 2" xmlns="http://www.w3.org/2000/svg" viewBox="0 0 390.39 496.83">
  <defs>
    <style>
      .cls-1 {
        fill: #fff;
      }
    </style>
  </defs>
  <g id="Layer_1-2" data-name="Layer 1">
    <path class="cls-1" d="M301.66,425.85h-106.47c-4.88,0-8.87,3.99-8.87,8.87s3.99,8.87,8.87,8.87h106.47c4.88,0,8.87-3.99,8.87-8.87s-3.99-8.87-8.87-8.87ZM106.47,408.11c-14.73,0-26.62,11.89-26.62,26.62s11.89,26.62,26.62,26.62,26.62-11.89,26.62-26.62-11.89-26.62-26.62-26.62ZM301.66,283.89h-106.47c-4.88,0-8.87,3.99-8.87,8.87s3.99,8.87,8.87,8.87h106.47c4.88,0,8.87-3.99,8.87-8.87s-3.99-8.87-8.87-8.87ZM106.47,266.15c-14.73,0-26.62,11.89-26.62,26.62s11.89,26.62,26.62,26.62,26.62-11.89,26.62-26.62-11.89-26.62-26.62-26.62ZM363.77,283.89h-17.74v-26.62c0-14.73-11.89-26.62-26.62-26.62h-115.34v-36.11c21.21-3.11,39.3-16.86,47.91-36.47,4.61,1.06,9.4,1.6,14.2,1.6,34.34,0,62.11-27.77,62.11-62.11s-27.77-62.11-62.11-62.11c-4.79,0-9.58.53-14.2,1.6-13.84-31.41-50.48-45.6-81.89-31.76-14.2,6.21-25.55,17.57-31.76,31.76-33.45-7.72-66.81,13.13-74.53,46.49-7.72,33.45,13.13,66.81,46.58,74.53,9.14,2.13,18.72,2.13,27.95,0,8.61,19.61,26.79,33.45,48,36.47v36.11h-115.34c-14.73,0-26.62,11.89-26.62,26.62v26.62h-17.74c-14.73,0-26.62,11.89-26.62,26.62v106.47c0,14.73,11.89,26.62,26.62,26.62h17.74v26.62c0,14.73,11.89,26.62,26.62,26.62h248.43c14.73,0,26.62-11.89,26.62-26.62v-26.62h17.74c14.73,0,26.62-11.89,26.62-26.62v-106.47c0-14.73-11.89-26.62-26.62-26.62ZM171.5,172.55h-.09c-11.45-5.23-20.67-14.11-25.91-25.2-8.07,1.77-16.59,1.77-24.58,0-29.55-6.39-47.91-33.72-41.08-61.13,6.74-27.42,36.2-44.54,65.66-38.15,5.5-11.71,15.53-21.03,28.04-26.08,27.68-11.36,59.98.27,72.22,26.08,4.08-.89,8.25-1.33,12.51-1.33,30.26,0,54.74,22.8,54.74,50.93s-24.49,51.02-54.74,51.02c-4.26,0-8.43-.44-12.51-1.33-5.23,11.09-14.46,19.96-25.82,25.2h-.09s-3.11,1.6-8.34,3.02c-8.87,2.31-23.69,4.08-40.01-3.02ZM62.11,257.28c0-4.88,3.99-8.87,8.87-8.87h248.43c4.88,0,8.87,3.99,8.87,8.87v70.98c0,4.88-3.99,8.87-8.87,8.87H70.98c-4.88,0-8.87-3.99-8.87-8.87v-70.98ZM292.79,354.87v17.74H97.6v-17.74h195.19ZM44.36,399.23v26.62h-17.74c-4.88,0-8.87-3.99-8.87-8.87v-106.47c0-4.88,3.99-8.87,8.87-8.87h17.74v26.62c0,14.73,11.89,26.62,26.62,26.62h8.87v17.74h-8.87c-14.73,0-26.62,11.89-26.62,26.62ZM328.28,470.21c0,4.88-3.99,8.87-8.87,8.87H70.98c-4.88,0-8.87-3.99-8.87-8.87v-70.98c0-4.88,3.99-8.87,8.87-8.87h248.43c4.88,0,8.87,3.99,8.87,8.87v70.98ZM372.64,416.98c0,4.88-3.99,8.87-8.87,8.87h-17.74v-26.62c0-14.73-11.89-26.62-26.62-26.62h-8.87v-17.74h8.87c14.73,0,26.62-11.89,26.62-26.62v-26.62h17.74c4.88,0,8.87,3.99,8.87,8.87v106.47ZM195.19,301.64h106.47c4.88,0,8.87-3.99,8.87-8.87s-3.99-8.87-8.87-8.87h-106.47c-4.88,0-8.87,3.99-8.87,8.87s3.99,8.87,8.87,8.87ZM301.66,425.85h-106.47c-4.88,0-8.87,3.99-8.87,8.87s3.99,8.87,8.87,8.87h106.47c4.88,0,8.87-3.99,8.87-8.87s-3.99-8.87-8.87-8.87ZM106.47,319.38c14.73,0,26.62-11.89,26.62-26.62s-11.89-26.62-26.62-26.62-26.62,11.89-26.62,26.62,11.89,26.62,26.62,26.62ZM106.47,408.11c-14.73,0-26.62,11.89-26.62,26.62s11.89,26.62,26.62,26.62,26.62-11.89,26.62-26.62-11.89-26.62-26.62-26.62ZM301.66,425.85h-106.47c-4.88,0-8.87,3.99-8.87,8.87s3.99,8.87,8.87,8.87h106.47c4.88,0,8.87-3.99,8.87-8.87s-3.99-8.87-8.87-8.87ZM106.47,408.11c-14.73,0-26.62,11.89-26.62,26.62s11.89,26.62,26.62,26.62,26.62-11.89,26.62-26.62-11.89-26.62-26.62-26.62ZM301.66,283.89h-106.47c-4.88,0-8.87,3.99-8.87,8.87s3.99,8.87,8.87,8.87h106.47c4.88,0,8.87-3.99,8.87-8.87s-3.99-8.87-8.87-8.87ZM106.47,266.15c-14.73,0-26.62,11.89-26.62,26.62s11.89,26.62,26.62,26.62,26.62-11.89,26.62-26.62-11.89-26.62-26.62-26.62Z"/>
  </g>
</svg>