<?xml version="1.0" encoding="UTF-8"?>
<svg id="Layer_2" data-name="Layer 2" xmlns="http://www.w3.org/2000/svg" viewBox="0 0 504.19 504.01">
  <defs>
    <style>
      .cls-1 {
        fill: #fff;
        fill-rule: evenodd;
      }
    </style>
  </defs>
  <g id="Layer_1-2" data-name="Layer 1">
    <path class="cls-1" d="M482.61,314.05c11.9,0,21.58-10.36,21.58-23.09s-9.68-23.09-21.58-23.09h-21.82v-83.02c0-3.87-3.13-7-7-7h-90.02c-3.87,0-7,3.13-7,7v83.02h-22.99v-83.02c0-3.87-3.13-7-7-7h-90.02c-3.87,0-7,3.13-7,7v83.02h-28.33v-6.65c0-10.65-8.1-19.43-18.46-20.53l-6.87-70.62c4.72-6.44,7.47-13.88,8.26-21.49l76.21-83.28c1.71-.1,3.41-.35,5.09-.73l35.63,16.19c.04.16.07.32.12.49,2.02,7.53,6.85,13.82,13.6,17.72,4.5,2.6,9.49,3.92,14.55,3.92,1.9,0,3.81-.19,5.71-.57-3.98,24.67,7.28,50.39,30.17,63.61,9.6,5.54,20.29,8.3,30.98,8.3s22.41-3.04,32.34-9.1c2.11-1.29,3.38-3.59,3.35-6.06s-1.36-4.74-3.5-5.98l-46.33-26.75v-22.25l19.27-11.13,46.33,26.75c2.14,1.24,4.77,1.25,6.93.04,2.15-1.21,3.51-3.46,3.57-5.93.56-22.72-11.31-43.88-30.97-55.23-14.33-8.28-31.03-10.47-47.02-6.19-8.62,2.31-16.47,6.37-23.18,11.85-2.2-6.46-6.65-12.18-13.01-15.86-7.12-4.11-15.27-4.87-22.62-2.76l-31.85-22.76c-.71-2.25-1.67-4.44-2.88-6.53-4.36-7.56-11.41-12.96-19.83-15.22-8.43-2.26-17.23-1.1-24.79,3.26-7.56,4.36-12.96,11.41-15.22,19.83-.41,1.54-.71,3.09-.89,4.64l-87.32,71c-10.75.4-21.39,4.68-29.58,12.88-15.6,15.6-17.07,40.05-4.41,57.32l-6.87,70.62c-10.36,1.1-18.46,9.89-18.46,20.53v6.65h-17.07c-15.61,0-28.31,12.7-28.31,28.31v37.87l-14.01,14.01c-3.78,3.78-4.36,9.75-1.39,14.19l4.87,7.26-5.96,14.39-8.58,1.69c-5.25,1.04-9.06,5.67-9.06,11.01v22.71c0,5.35,3.81,9.98,9.06,11.01l8.58,1.69,5.96,14.39-4.87,7.26c-2.98,4.44-2.4,10.41,1.39,14.19l16.06,16.06c3.78,3.78,9.75,4.36,14.19,1.38l7.26-4.87,14.38,5.96,1.69,8.58c1.03,5.25,5.67,9.05,11.01,9.05h22.71c5.35,0,9.98-3.81,11.01-9.05l1.69-8.58,14.39-5.96,7.26,4.87c4.44,2.98,10.41,2.4,14.19-1.38l6.91-6.91h260.91c38.07,0,69.04-30.97,69.04-69.04s-30.97-69.04-69.04-69.04h-204.02v-24.86h262.86ZM490.19,290.96c0,4.93-3.47,9.09-7.58,9.09H219.75v-18.18h262.86c4.11,0,7.58,4.16,7.58,9.09ZM400.33,191.85h16.9v15.09h-16.9v-15.09ZM370.77,191.85h15.56v22.09c0,3.87,3.13,7,7,7h30.9c3.87,0,7-3.13,7-7v-22.09h15.56v76.02h-76.02v-76.02ZM273.32,191.85h16.9v15.09h-16.9v-15.09ZM243.76,191.85h15.56v22.09c0,3.87,3.13,7,7,7h30.9c3.87,0,7-3.13,7-7v-22.09h15.56v76.02h-76.02v-76.02ZM140.46,188.12c7.88,0,15.76-2.1,22.72-6.27l5.71,58.72h-56.88l5.71-58.72c6.97,4.18,14.84,6.27,22.72,6.27h0ZM230.28,49.01c3.35,5.8,8.28,10.32,14.2,13.14l-62.12,67.88c-2.09-6.32-5.64-12.27-10.66-17.29-4.31-4.31-9.29-7.54-14.61-9.69l71.28-57.96c.55,1.34,1.19,2.65,1.92,3.92ZM290.12,41.14c.06-.22.1-.44.16-.65l18.23,13.03c-1.58,1.65-3,3.51-4.19,5.58-1.18,2.05-2.1,4.2-2.75,6.42l-20.37-9.26c4.27-4.08,7.36-9.26,8.92-15.11h0ZM384.01,65.94c4.13-1.11,8.33-1.65,12.49-1.65,8.31,0,16.52,2.18,23.91,6.45,11.45,6.61,19.48,17.52,22.58,30.01l-37.94-21.9c-2.17-1.25-4.83-1.25-7,0l-26.27,15.17c-2.17,1.25-3.5,3.56-3.5,6.06v30.33c0,2.5,1.33,4.81,3.5,6.06l37.94,21.9c-12.36,3.56-25.83,2.06-37.28-4.55-22.9-13.23-30.78-42.62-17.56-65.53,6.41-11.1,16.75-19.03,29.13-22.35h0ZM337.19,60.54c7.25,4.18,9.74,13.49,5.57,20.74,0,0,0,0,0,.01,0,0,0,0,0,.01-2.03,3.51-5.3,6.02-9.22,7.07-3.92,1.05-8.01.51-11.53-1.52-3.51-2.03-6.03-5.3-7.08-9.22-1.05-3.92-.51-8.01,1.52-11.53,4.19-7.25,13.5-9.75,20.75-5.56ZM240.54,27.85c1.29-4.82,4.38-8.84,8.7-11.33,2.88-1.66,6.07-2.51,9.3-2.51,1.62,0,3.25.21,4.86.64,4.82,1.29,8.84,4.38,11.33,8.7s3.15,9.35,1.86,14.17c-1.29,4.82-4.38,8.84-8.7,11.33-4.32,2.49-9.35,3.15-14.16,1.87-4.82-1.29-8.84-4.38-11.33-8.7s-3.15-9.35-1.86-14.17ZM119.12,122.64c5.88-5.88,13.61-8.82,21.33-8.82s15.45,2.94,21.33,8.82c11.76,11.76,11.76,30.9,0,42.66-11.76,11.76-30.9,11.76-42.67,0-11.76-11.76-11.76-30.9,0-42.66ZM93.49,261.22c0-3.67,2.98-6.65,6.65-6.65h80.64c3.67,0,6.65,2.98,6.65,6.65v6.65h-93.94v-6.65h0ZM147.67,472.39l-8.48-5.69c-1.94-1.3-4.41-1.55-6.58-.65l-21.31,8.83c-2.16.9-3.74,2.82-4.19,5.11l-1.98,10.02h-18.15l-1.97-10.02c-.45-2.3-2.03-4.22-4.19-5.11l-21.31-8.83c-2.16-.9-4.63-.65-6.58.65l-8.48,5.69-12.83-12.83,5.69-8.48c1.31-1.95,1.55-4.41.65-6.58l-8.83-21.31c-.9-2.16-2.82-3.73-5.11-4.19l-10.02-1.98v-18.15l10.02-1.98c2.3-.45,4.22-2.02,5.11-4.19l8.83-21.31c.9-2.16.65-4.63-.65-6.58l-5.69-8.48,12.83-12.83,8.48,5.69c1.94,1.3,4.42,1.55,6.58.65l21.31-8.83c2.16-.9,3.74-2.82,4.19-5.11l1.97-10.02h18.15l1.98,10.02c.45,2.3,2.02,4.22,4.19,5.11l21.31,8.83c2.16.9,4.63.65,6.58-.65l8.48-5.69,12.83,12.83-5.69,8.48c-1.3,1.95-1.55,4.41-.65,6.58l8.83,21.31c.9,2.16,2.82,3.73,5.11,4.19l10.02,1.98v18.15l-10.02,1.98c-2.3.45-4.22,2.02-5.11,4.19l-8.83,21.31c-.9,2.16-.65,4.63.65,6.58l5.69,8.48-12.83,12.83h0ZM478.82,407.95c0,30.35-24.69,55.04-55.04,55.04h-248.92c.88-3.1.43-6.52-1.46-9.34l-4.87-7.26,5.96-14.39,8.57-1.69c5.25-1.03,9.06-5.67,9.06-11.02v-22.71c0-5.35-3.81-9.98-9.06-11.01l-8.58-1.69-5.96-14.39,4.87-7.26c1.89-2.82,2.34-6.24,1.46-9.34h248.92c30.35,0,55.04,24.69,55.04,55.04h0ZM162.86,338.91l-6.91-6.91c-3.78-3.78-9.75-4.36-14.19-1.39l-7.26,4.87-14.38-5.96-1.69-8.58c-1.03-5.25-5.67-9.05-11.01-9.05h-22.71c-5.35,0-9.98,3.81-11.01,9.05l-1.69,8.58-14.38,5.96-7.26-4.87c-.71-.48-1.47-.85-2.24-1.15v-33.29c0-7.89,6.42-14.31,14.31-14.31h143.33v57.04h-42.89ZM96.06,355.28c-29.04,0-52.67,23.63-52.67,52.67s23.63,52.67,52.67,52.67,52.67-23.63,52.67-52.67-23.63-52.67-52.67-52.67ZM96.06,446.62c-21.32,0-38.67-17.35-38.67-38.67s17.35-38.67,38.67-38.67,38.67,17.35,38.67,38.67-17.35,38.67-38.67,38.67ZM423.77,446.35c21.17,0,38.39-17.22,38.39-38.39s-17.22-38.39-38.39-38.39-38.39,17.22-38.39,38.39,17.22,38.39,38.39,38.39ZM423.77,383.56c13.45,0,24.39,10.94,24.39,24.39s-10.94,24.39-24.39,24.39-24.39-10.94-24.39-24.39,10.94-24.39,24.39-24.39ZM289.08,446.35c21.17,0,38.39-17.22,38.39-38.39s-17.22-38.39-38.39-38.39-38.39,17.22-38.39,38.39,17.22,38.39,38.39,38.39ZM289.08,383.56c13.45,0,24.39,10.94,24.39,24.39s-10.94,24.39-24.39,24.39-24.39-10.94-24.39-24.39,10.94-24.39,24.39-24.39ZM360.58,379.11c0-3.87,3.13-7,7-7h11.09c3.87,0,7,3.13,7,7s-3.13,7-7,7h-11.09c-3.87,0-7-3.13-7-7ZM327.18,379.11c0-3.87,3.13-7,7-7h11.09c3.87,0,7,3.13,7,7s-3.13,7-7,7h-11.09c-3.87,0-7-3.13-7-7ZM360.58,436.79c0-3.87,3.13-7,7-7h11.09c3.87,0,7,3.13,7,7s-3.13,7-7,7h-11.09c-3.87,0-7-3.13-7-7ZM352.27,436.79c0,3.87-3.13,7-7,7h-11.09c-3.87,0-7-3.13-7-7s3.13-7,7-7h11.09c3.87,0,7,3.13,7,7ZM192.49,436.79c0-3.87,3.13-7,7-7h11.09c3.87,0,7,3.13,7,7s-3.13,7-7,7h-11.09c-3.87,0-7-3.13-7-7ZM225.9,379.11c0-3.87,3.13-7,7-7h11.09c3.87,0,7,3.13,7,7s-3.13,7-7,7h-11.09c-3.87,0-7-3.13-7-7ZM192.49,379.11c0-3.87,3.13-7,7-7h11.09c3.87,0,7,3.13,7,7s-3.13,7-7,7h-11.09c-3.87,0-7-3.13-7-7ZM225.9,436.79c0-3.87,3.13-7,7-7h11.09c3.87,0,7,3.13,7,7s-3.13,7-7,7h-11.09c-3.87,0-7-3.13-7-7ZM132.65,151.78c-4.31-4.31-4.31-11.3,0-15.61s11.3-4.31,15.61,0,4.31,11.3,0,15.61-11.3,4.31-15.61,0h0Z"/>
  </g>
</svg>