<?xml version="1.0" encoding="UTF-8"?>
<svg id="Layer_2" data-name="Layer 2" xmlns="http://www.w3.org/2000/svg" viewBox="0 0 496.25 496">
  <defs>
    <style>
      .cls-1 {
        fill: #fff;
      }
    </style>
  </defs>
  <g id="Layer_1-2" data-name="Layer 1">
    <g id="Layer_14" data-name="Layer 14">
      <path class="cls-1" d="M279.03,232.51h85.25c2.03,0,4.07-.78,5.52-2.23l21.02-21.02h44.37c4.26,16.57,21.22,26.54,37.78,22.28,16.57-4.26,26.54-21.22,22.28-37.78-4.26-16.57-21.22-26.54-37.78-22.28-10.95,2.81-19.47,11.33-22.28,22.28h-47.66c-2.03,0-4.07.78-5.52,2.23l-20.93,21.02h-82.06v-31h16.57c4.26,16.57,21.22,26.54,37.78,22.28,16.57-4.26,26.54-21.22,22.28-37.78-4.26-16.57-21.22-26.54-37.78-22.28-10.95,2.81-19.47,11.33-22.28,22.28h-16.57v-31h93c2.03,0,4.07-.78,5.52-2.23l13.27-13.27h13.37c4.26,16.57,21.22,26.54,37.78,22.28,16.57-4.26,26.54-21.22,22.28-37.78-4.26-16.57-21.22-26.54-37.78-22.28-10.95,2.81-19.47,11.33-22.28,22.28h-16.66c-2.03,0-4.07.78-5.52,2.23l-13.18,13.27h-89.81v-31h85.25c2.03,0,4.07-.78,5.52-2.23l17.63-17.63c4.75,2.81,10.17,4.36,15.69,4.36,17.15,0,31-13.85,31-31s-13.85-31-31-31-31,13.85-31,31c0,5.52,1.55,10.95,4.36,15.69l-15.4,15.31h-82.06C279.03,34.68,244.35,0,201.53,0c-24.41,0-47.37,11.53-62,31-42.82,0-77.5,34.68-77.5,77.5-19.57,14.63-31,37.59-31,62v1.74c-41.37,42.04-41.37,109.47,0,151.52v1.74c0,24.41,11.43,47.37,31,62,0,42.82,34.68,77.5,77.5,77.5,25.67,34.2,74.31,41.17,108.5,15.5,19.47-14.63,31-37.59,31-62h66.55l15.31,15.31c-2.81,4.75-4.36,10.17-4.36,15.69,0,17.15,13.85,31,31,31s31-13.85,31-31-13.85-31-31-31c-5.52,0-10.95,1.55-15.69,4.36l-17.63-17.63c-1.45-1.45-3.39-2.23-5.52-2.23h-69.75v-31h58.8l13.27,13.27c1.45,1.45,3.39,2.23,5.52,2.23h63.07c4.26,16.57,21.22,26.54,37.78,22.28,16.57-4.26,26.54-21.22,22.28-37.78-4.26-16.57-21.22-26.54-37.78-22.28-10.95,2.81-19.47,11.33-22.28,22.28h-59.87l-13.27-13.27c-1.45-1.45-3.39-2.23-5.52-2.23h-62v-31h116.25c2.03,0,4.07-.78,5.52-2.23l17.63-17.63c4.75,2.81,10.17,4.36,15.69,4.36,17.15,0,31-13.85,31-31s-13.85-31-31-31-31,13.85-31,31c0,5.52,1.55,10.95,4.36,15.69l-15.31,15.31h-113.06v-31h47.57c4.26,16.57,21.22,26.54,37.78,22.28,16.57-4.26,26.54-21.22,22.28-37.78-4.26-16.57-21.22-26.54-37.78-22.28-10.95,2.81-19.47,11.33-22.28,22.28h-47.57v-31ZM465.04,186c8.53,0,15.5,6.98,15.5,15.5s-6.98,15.5-15.5,15.5-15.5-6.98-15.5-15.5,6.98-15.5,15.5-15.5ZM325.53,162.75c8.53,0,15.5,6.98,15.5,15.5s-6.98,15.5-15.5,15.5-15.5-6.98-15.5-15.5,6.98-15.5,15.5-15.5ZM434.04,100.75c8.53,0,15.5,6.98,15.5,15.5s-6.98,15.5-15.5,15.5-15.5-6.98-15.5-15.5,6.98-15.5,15.5-15.5ZM403.03,31c8.53,0,15.5,6.98,15.5,15.5s-6.98,15.5-15.5,15.5-15.5-6.98-15.5-15.5,6.98-15.5,15.5-15.5ZM403.03,449.51c0,8.53-6.98,15.5-15.5,15.5s-15.5-6.98-15.5-15.5,6.98-15.5,15.5-15.5,15.5,6.98,15.5,15.5ZM449.54,364.26c8.53,0,15.5,6.98,15.5,15.5s-6.98,15.5-15.5,15.5-15.5-6.98-15.5-15.5,6.98-15.5,15.5-15.5ZM434.04,263.51c8.53,0,15.5,6.98,15.5,15.5s-6.98,15.5-15.5,15.5-15.5-6.98-15.5-15.5,6.98-15.5,15.5-15.5ZM356.53,255.76c8.53,0,15.5,6.98,15.5,15.5s-6.98,15.5-15.5,15.5-15.5-6.98-15.5-15.5,6.98-15.5,15.5-15.5ZM263.53,418.51c0,34.2-27.8,62-62,62-20.73,0-40.11-10.37-51.64-27.71l-.1-.1c-5.43-8.14-8.82-17.53-9.88-27.32-.48-4.26-4.26-7.36-8.53-6.88s-7.36,4.26-6.88,8.53c.87,7.46,2.81,14.73,5.81,21.6-30.32-4.55-52.7-30.61-52.8-61.23,0-.78.19-3.78.19-3.97.48-8.53,2.81-16.86,6.78-24.41,1.94-3.78.48-8.53-3.29-10.46s-8.53-.48-10.46,3.29c-2.71,5.33-4.84,11.04-6.3,16.86-11.53-11.43-17.92-26.93-17.92-43.21,0-1.16.19-4.46.19-4.55.58-8.04,2.71-15.79,6.3-22.96,2.03-3.78.48-8.43-3.29-10.46s-8.43-.48-10.46,3.29c-.1.1-.1.19-.19.29-1.94,4.07-3.58,8.23-4.84,12.59-24.9-32.84-24.9-78.37,0-111.22,1.26,4.36,2.91,8.53,4.84,12.59,1.84,3.88,6.39,5.52,10.27,3.68s5.52-6.39,3.68-10.27c-4.36-8.62-6.49-18.21-6.59-27.9,0-16.28,6.39-31.78,17.83-43.3,1.45,5.81,3.49,11.53,6.3,16.86,1.94,3.78,6.68,5.33,10.46,3.29s5.33-6.68,3.29-10.46c-4.65-8.82-6.78-18.6-6.88-28.48.1-30.61,22.48-56.67,52.8-61.23-3,6.88-4.94,14.14-5.81,21.6-.48,4.26,2.62,8.04,6.88,8.53h.87c3.97,0,7.27-3,7.65-6.88,1.07-9.78,4.46-19.08,9.88-27.32l.1-.1c18.89-28.58,57.35-36.33,85.93-17.44,17.44,11.53,27.8,31,27.8,51.83v341.01Z"/>
      <path class="cls-1" d="M170.53,124c21.41,0,38.75-17.34,38.75-38.75,0-4.26-3.49-7.75-7.75-7.75s-7.75,3.49-7.75,7.75c0,12.88-10.37,23.25-23.25,23.25-4.26,0-7.75,3.49-7.75,7.75s3.49,7.75,7.75,7.75Z"/>
      <path class="cls-1" d="M69.78,240.26c-4.26,0-7.75,3.49-7.75,7.75s3.49,7.75,7.75,7.75c17.15,0,31,13.85,31,31,0,4.26,3.49,7.75,7.75,7.75s7.75-3.49,7.75-7.75c0-25.67-20.83-46.5-46.5-46.5Z"/>
      <path class="cls-1" d="M201.53,364.26c-4.26,0-7.75,3.49-7.75,7.75s3.49,7.75,7.75,7.75c8.53,0,15.5,6.98,15.5,15.5,0,4.26,3.49,7.75,7.75,7.75s7.75-3.49,7.75-7.75c0-17.15-13.85-31-31-31Z"/>
      <path class="cls-1" d="M201.53,162.75c-4.26,0-7.75,3.49-7.75,7.75,0,17.15,13.85,31,31,31,4.26,0,7.75-3.49,7.75-7.75s-3.49-7.75-7.75-7.75c-8.53,0-15.5-6.98-15.5-15.5,0-4.26-3.49-7.75-7.75-7.75Z"/>
      <path class="cls-1" d="M236.89,259.15c-17.15,0-31,13.85-31,31,0,4.26,3.49,7.75,7.75,7.75s7.75-3.49,7.75-7.75c0-8.53,6.98-15.5,15.5-15.5,4.26,0,7.75-3.49,7.75-7.75s-3.49-7.75-7.75-7.75Z"/>
      <path class="cls-1" d="M147.28,193.75c0-17.15-13.85-31-31-31-4.26,0-7.75,3.49-7.75,7.75s3.49,7.75,7.75,7.75c8.53,0,15.5,6.98,15.5,15.5,0,4.26,3.49,7.75,7.75,7.75s7.75-3.49,7.75-7.75Z"/>
      <path class="cls-1" d="M170.53,325.51c-17.15,0-31,13.85-31,31,0,4.26,3.49,7.75,7.75,7.75s7.75-3.49,7.75-7.75c0-8.53,6.98-15.5,15.5-15.5,4.26,0,7.75-3.49,7.75-7.75s-3.49-7.75-7.75-7.75Z"/>
    </g>
  </g>
</svg>