<?xml version="1.0" encoding="UTF-8"?>
<svg id="Layer_2" data-name="Layer 2" xmlns="http://www.w3.org/2000/svg" viewBox="0 0 495.37 495.37">
  <defs>
    <style>
      .cls-1 {
        fill: #fff;
      }
    </style>
  </defs>
  <g id="Layer_1-2" data-name="Layer 1">
    <g>
      <path class="cls-1" d="M247.69,0C111.15,0,0,111.15,0,247.69s111.15,247.69,247.69,247.69,247.69-111.15,247.69-247.69S384.22,0,247.69,0ZM247.69,474.73c-125.18,0-227.05-101.86-227.05-227.05S122.5,20.64,247.69,20.64s227.05,101.86,227.05,227.05-101.86,227.05-227.05,227.05Z"/>
      <path class="cls-1" d="M349.75,181.12c-1.86-3.82-5.88-5.99-10.11-5.68-4.23.41-7.74,3.3-8.98,7.33l-38.49,131.07-34.26-222.61c0-.21-.1-.31-.21-.41-.1-.72-.52-1.44-.83-2.17-.21-.52-.41-1.03-.72-1.55-.41-.62-1.03-1.14-1.55-1.65-.41-.41-.72-.83-1.24-1.14-.62-.41-1.24-.62-1.86-.93s-1.24-.52-1.86-.72c-.21,0-.31-.1-.41-.21-.52.1-1.03.31-1.55.31s-1.03-.21-1.55-.1c-.21,0-.31.1-.52.21-.72.1-1.24.41-1.86.72s-1.24.52-1.75.83-.93.83-1.34,1.24c-.52.52-1.03.93-1.44,1.55-.31.52-.52,1.03-.72,1.65-.31.72-.62,1.34-.72,2.06,0,.21-.1.31-.21.41l-34.26,222.61-38.49-131.07c-1.24-4.02-4.75-7.02-8.98-7.33-4.23-.41-8.26,1.86-10.11,5.68l-28.28,56.14H51.6c-5.68,0-10.32,4.64-10.32,10.32s4.64,10.32,10.32,10.32h72.24c3.92,0,7.53-2.17,9.18-5.68l19.2-38.49,44.17,150.26c1.44,4.44,5.47,7.43,10.01,7.43h.72c4.85-.31,8.77-3.92,9.49-8.77l31.06-201.97,31.06,202.07c.72,4.75,4.64,8.36,9.49,8.77h.72c4.54,0,8.57-2.99,9.91-7.43l44.17-150.26,19.2,38.49c1.75,3.41,5.37,5.57,9.29,5.57h72.24c5.68,0,10.32-4.64,10.32-10.32s-4.64-10.32-10.32-10.32h-65.84l-28.17-56.25Z"/>
    </g>
  </g>
</svg>