<?xml version="1.0" encoding="UTF-8"?>
<svg id="Layer_2" data-name="Layer 2" xmlns="http://www.w3.org/2000/svg" viewBox="0 0 488 488.03">
  <defs>
    <style>
      .cls-1 {
        fill: #fff;
      }
    </style>
  </defs>
  <g id="Layer_1-2" data-name="Layer 1">
    <g>
      <path class="cls-1" d="M371.86,250.17c2.34-3.77,2.34-8.54,0-12.31-27.73-44.42-75.53-70.98-127.86-70.98s-100.14,26.55-127.86,70.98c-2.34,3.77-2.34,8.54,0,12.31,27.73,44.42,75.53,70.97,127.86,70.97s100.14-26.55,127.86-70.97ZM139.94,244.01c23.9-33.87,62.26-53.87,104.06-53.87s80.16,20,104.06,53.87c-23.9,33.87-62.27,53.87-104.06,53.87s-80.16-20-104.06-53.87h0Z"/>
      <path class="cls-1" d="M293.76,244.01c0-27.43-22.32-49.78-49.76-49.78s-49.77,22.35-49.77,49.78,22.33,49.76,49.77,49.76,49.76-22.32,49.76-49.76ZM217.48,244.01c0-14.64,11.9-26.52,26.52-26.52s26.51,11.89,26.51,26.52-11.89,26.49-26.51,26.49-26.52-11.89-26.52-26.49h0Z"/>
      <path class="cls-1" d="M244,488.03c6.41,0,11.62-5.22,11.62-11.63v-47.04c93.27-5.73,167.98-80.45,173.71-173.71h47.06c6.41,0,11.62-5.22,11.62-11.63s-5.21-11.63-11.62-11.63h-47.07c-5.9-93.1-80.54-167.64-173.69-173.37V11.63c0-6.41-5.2-11.63-11.62-11.63s-11.62,5.22-11.62,11.63v47.4c-93.02,5.88-167.48,80.36-173.37,173.35H11.62c-6.43,0-11.62,5.22-11.62,11.63s5.19,11.63,11.62,11.63h47.39c5.73,93.14,80.26,167.8,173.38,173.69v47.06c0,6.41,5.19,11.63,11.62,11.63h0ZM82.22,255.26c5.49-.93,9.75-5.5,9.75-11.25s-4.26-10.31-9.73-11.25c5.63-80.37,69.83-144.66,150.15-150.47v1.33c0,6.41,5.19,11.63,11.62,11.63s11.62-5.22,11.62-11.63v-1.35c80.33,5.64,144.65,69.8,150.45,150.11h-1.69c-6.41,0-11.61,5.22-11.61,11.63s5.2,11.63,11.61,11.63h1.72c-5.66,80.57-70.18,144.96-150.78,150.46-.8-5.64-5.45-10.07-11.3-10.07s-10.51,4.42-11.3,10.06c-80.58-5.66-145-70.19-150.48-150.82h0Z"/>
    </g>
  </g>
</svg>