<?xml version="1.0" encoding="UTF-8"?>
<svg id="Layer_2" data-name="Layer 2" xmlns="http://www.w3.org/2000/svg" viewBox="0 0 391.02 494.93">
  <defs>
    <style>
      .cls-1 {
        fill: #fff;
        fill-rule: evenodd;
      }
    </style>
  </defs>
  <g id="Layer_1-2" data-name="Layer 1">
    <g id="Layer_1-3" data-name="Layer_1">
      <g id="_418430336" data-name=" 418430336">
        <path id="_418430888" data-name=" 418430888" class="cls-1" d="M195.51,494.93c-.39,0-.68,0-.98-.1-54.13-9.58-103.28-32.05-138.45-63.22C19.93,399.57,0,359.31,0,318.28V119.54c0-2.44,1.56-4.69,3.91-5.57C71.81,90.04,141.87,48.02,191.5,1.61c2.25-2.15,5.76-2.15,8.01,0,49.54,46.41,119.69,88.42,187.6,112.36,2.35.78,3.91,3.03,3.91,5.57v198.73c0,41.04-19.93,81.29-56.08,113.34-35.08,31.17-84.32,53.64-138.45,63.22-.29.1-.68.1-.98.1h0ZM11.72,123.65v194.53c0,38.2,17.98,74.35,52.08,104.55,33.32,29.61,80.02,50.91,131.71,60.28,51.69-9.28,98.39-30.68,131.71-60.28,34.1-30.29,52.08-66.44,52.08-104.55V123.65c-66.34-23.94-134.35-64.58-183.79-109.72C145.97,59.06,77.97,99.71,11.72,123.65h0Z"/>
        <path id="_418430864" data-name=" 418430864" class="cls-1" d="M195.51,455.75c-.39,0-.78,0-1.17-.1-33.61-6.64-66.34-19.74-92.04-37.03-29.8-20.03-50.32-45.34-59.31-73.38-3.32-10.26-4.98-20.91-4.98-31.46v-170.11c0-2.44,1.47-4.59,3.71-5.47,53.84-21.1,107.09-52.47,149.98-88.33,2.15-1.86,5.37-1.86,7.52,0,42.89,35.86,96.14,67.22,149.98,88.33,2.25.88,3.71,3.03,3.71,5.47v170.11c0,10.55-1.66,21.2-4.98,31.46-8.99,28.04-29.51,53.35-59.31,73.38-25.7,17.29-58.43,30.39-92.04,37.03-.39.1-.68.1-1.07.1h0ZM49.83,147.58v166.2c0,9.38,1.47,18.76,4.4,27.85,18.66,58.23,87.54,91.36,141.28,102.2,53.74-10.85,122.62-43.97,141.28-102.2,2.93-9.09,4.4-18.47,4.4-27.85v-166.2c-52.08-20.91-103.57-51.1-145.68-85.59-42.21,34.49-93.6,64.78-145.68,85.59h0Z"/>
        <path id="_418431368" data-name=" 418431368" class="cls-1" d="M195.51,324.53c-52.57,0-101.42-28.43-127.41-74.06-.98-1.76-.98-4.01,0-5.76,26.09-45.73,74.84-74.06,127.41-74.06s101.42,28.43,127.41,74.06c.98,1.76.98,4.01,0,5.76-26.09,45.63-74.94,74.06-127.41,74.06h0ZM79.92,247.54c24.33,40.35,68.3,65.27,115.49,65.27s91.16-24.92,115.49-65.27c-24.33-40.35-68.3-65.27-115.49-65.27s-91.06,24.92-115.49,65.27Z"/>
        <path id="_418431152" data-name=" 418431152" class="cls-1" d="M195.51,324.34c-42.4,0-76.89-34.49-76.89-76.89s34.49-76.89,76.89-76.89,76.89,34.49,76.89,76.89c-.1,42.4-34.59,76.89-76.89,76.89h0ZM195.51,182.37c-35.96,0-65.17,29.21-65.17,65.17s29.21,65.17,65.17,65.17,65.17-29.21,65.17-65.17-29.31-65.17-65.17-65.17h0Z"/>
        <path id="_418430816" data-name=" 418430816" class="cls-1" d="M178.61,226.63c-3.22,0-5.86-2.64-5.86-5.86v-13.48c0-3.22,2.64-5.86,5.86-5.86s5.86,2.64,5.86,5.86v13.48c0,3.22-2.64,5.86-5.86,5.86Z"/>
        <path id="_418431032" data-name=" 418431032" class="cls-1" d="M195.51,226.63c-3.22,0-5.86-2.64-5.86-5.86v-13.48c0-3.22,2.64-5.86,5.86-5.86s5.86,2.64,5.86,5.86v13.48c0,3.22-2.64,5.86-5.86,5.86Z"/>
        <path id="_418431248" data-name=" 418431248" class="cls-1" d="M212.32,226.63c-3.22,0-5.86-2.64-5.86-5.86v-13.48c0-3.22,2.64-5.86,5.86-5.86s5.86,2.64,5.86,5.86v13.48c0,3.22-2.64,5.86-5.86,5.86Z"/>
        <path id="_418431080" data-name=" 418431080" class="cls-1" d="M214.66,280.17h-38.3c-7.43,0-13.48-6.06-13.48-13.48v-38.3c0-7.43,6.06-13.48,13.48-13.48h38.3c7.43,0,13.48,6.06,13.48,13.48v38.3c-.1,7.43-6.06,13.48-13.48,13.48ZM176.36,226.63c-.98,0-1.76.78-1.76,1.76v38.3c0,.98.78,1.76,1.76,1.76h38.3c.98,0,1.76-.78,1.76-1.76v-38.3c0-.98-.78-1.76-1.76-1.76h-38.3Z"/>
        <path id="_418430288" data-name=" 418430288" class="cls-1" d="M235.77,236.5h-13.48c-3.22,0-5.86-2.64-5.86-5.86s2.64-5.86,5.86-5.86h13.48c3.22,0,5.86,2.64,5.86,5.86s-2.64,5.86-5.86,5.86Z"/>
        <path id="_418430024" data-name=" 418430024" class="cls-1" d="M235.77,253.4h-13.48c-3.22,0-5.86-2.64-5.86-5.86s2.64-5.86,5.86-5.86h13.48c3.22,0,5.86,2.64,5.86,5.86s-2.64,5.86-5.86,5.86Z"/>
        <path id="_418430504" data-name=" 418430504" class="cls-1" d="M235.77,270.21h-13.48c-3.22,0-5.86-2.64-5.86-5.86s2.64-5.86,5.86-5.86h13.48c3.22,0,5.86,2.64,5.86,5.86s-2.64,5.86-5.86,5.86h0Z"/>
        <path id="_418430072" data-name=" 418430072" class="cls-1" d="M212.32,293.66c-3.22,0-5.86-2.64-5.86-5.86v-13.48c0-3.22,2.64-5.86,5.86-5.86s5.86,2.64,5.86,5.86v13.48c0,3.22-2.64,5.86-5.86,5.86Z"/>
        <path id="_418430144" data-name=" 418430144" class="cls-1" d="M195.51,293.66c-3.22,0-5.86-2.64-5.86-5.86v-13.48c0-3.22,2.64-5.86,5.86-5.86s5.86,2.64,5.86,5.86v13.48c0,3.22-2.64,5.86-5.86,5.86Z"/>
        <path id="_418430264" data-name=" 418430264" class="cls-1" d="M178.61,293.66c-3.22,0-5.86-2.64-5.86-5.86v-13.48c0-3.22,2.64-5.86,5.86-5.86s5.86,2.64,5.86,5.86v13.48c0,3.22-2.64,5.86-5.86,5.86Z"/>
        <path id="_418430624" data-name=" 418430624" class="cls-1" d="M168.74,270.21h-13.48c-3.22,0-5.86-2.64-5.86-5.86s2.64-5.86,5.86-5.86h13.48c3.22,0,5.86,2.64,5.86,5.86s-2.64,5.86-5.86,5.86h0Z"/>
        <path id="_418430552" data-name=" 418430552" class="cls-1" d="M168.74,253.4h-13.48c-3.22,0-5.86-2.64-5.86-5.86s2.64-5.86,5.86-5.86h13.48c3.22,0,5.86,2.64,5.86,5.86s-2.64,5.86-5.86,5.86Z"/>
        <path id="_418430408" data-name=" 418430408" class="cls-1" d="M168.74,236.5h-13.48c-3.22,0-5.86-2.64-5.86-5.86s2.64-5.86,5.86-5.86h13.48c3.22,0,5.86,2.64,5.86,5.86s-2.64,5.86-5.86,5.86Z"/>
      </g>
    </g>
  </g>
</svg>