<?xml version="1.0" encoding="UTF-8"?>
<svg id="Layer_1" data-name="Layer 1" xmlns="http://www.w3.org/2000/svg" viewBox="0 0 1200 1200">
  <defs>
    <style>
      .cls-1 {
        fill: #212c3b;
      }
    </style>
  </defs>
  <path class="cls-1" d="M461.7,597.78c0,14.17-10.42,26.13-37.91,26.13-11.95,0-26.13-2.39-33.64-6.49l8.03-17.93c5.81,2.9,19.13,5.64,25.61,5.64,12.81,0,17.42-2.05,17.42-6.83,0-11.27-49.69-6.83-49.69-36.54,0-18.95,16.91-26.64,37.23-26.47,11.61.17,20.32,2.56,28.18,6.66l-8.03,17.76c-4.44-2.9-13.66-5.64-24.42-5.64-5.64,0-12.47,1.71-12.47,5.64,0,11.78,49.69,7.68,49.69,38.08Z"/>
  <path class="cls-1" d="M466.99,585.14v-48.33h20.49v49.01c0,11.27,7.86,18.78,18.95,18.78s18.95-7.86,18.95-22.03v-45.76h20.49v83.33c0,26.13-15.2,44.74-45.25,44.74h-17.76v-18.78h20.15c15.03,0,22.2-11.61,22.2-23.57v-6.15c-5.98,4.61-13.49,7-21.69,7-23.74,0-36.54-14.69-36.54-38.25Z"/>
  <path class="cls-1" d="M622.89,597.78c0,14.17-10.42,26.13-37.91,26.13-11.95,0-26.13-2.39-33.64-6.49l8.03-17.93c5.81,2.9,19.13,5.64,25.61,5.64,12.81,0,17.42-2.05,17.42-6.83,0-11.27-49.69-6.83-49.69-36.54,0-18.95,16.91-26.64,37.23-26.47,11.61.17,20.32,2.56,28.18,6.66l-8.03,17.76c-4.44-2.9-13.66-5.64-24.42-5.64-5.63,0-12.47,1.71-12.47,5.64,0,11.78,49.69,7.68,49.69,38.08Z"/>
  <path class="cls-1" d="M687.95,603.24l9.39,17.08c-5.46,2.05-16.73,3.24-24.08,3.24-31.42,0-45.25-22.03-45.25-44.23s13.83-44.23,45.25-44.23c7.34,0,18.61,1.2,24.08,3.24l-9.39,17.08c-2.73-1.02-11.1-1.54-14.69-1.54-33.13,0-33.13,50.89,0,50.89,3.59,0,11.95-.51,14.69-1.54Z"/>
  <path class="cls-1" d="M789.6,622.37h-20.49v-4.78c-6.66,4.27-14.86,5.81-22.54,5.81-29.71,0-44.4-21.69-44.23-43.89.17-28.86,23.22-43.89,45.59-43.89,21.17,0,41.67,11.95,41.67,40.13v46.62ZM748.79,604.61c14,0,21-12.47,21.18-24.93.34-16.73-10.93-24.76-22.54-24.93-12.12-.17-24.59,8.37-24.59,24.59,0,12.47,8.54,25.27,25.96,25.27Z"/>
  <path class="cls-1" d="M796.43,664.89v-128.07h45.42c53.62,0,54.64,86.58-2.05,86.58-7.68,0-16.39-2.05-23.05-6.49v47.98h-20.32ZM841.86,555.6h-24.93v29.54c0,14.86,12.98,19.47,22.71,19.47,29.54,0,28.69-49.01,2.22-49.01Z"/>
  <path class="cls-1" d="M977.95,592.32c-4.44,17.08-18.44,31.25-43.54,31.25-31.42,0-45.25-22.03-45.25-44.23s13.83-44.23,45.25-44.23c29.71,0,43.54,22.03,43.54,44.23,0,2.05-.34,4.27-.51,6.32h-67.45c2.39,10.25,10.42,19.13,24.42,19.13,10.76,0,18.27-5.29,22.03-12.47h21.52ZM955.75,568.58c-3.24-8.37-10.59-14.69-21.35-14.69-11.95,0-19.64,6.49-23.05,14.69h44.4Z"/>
  <g>
    <path class="cls-1" d="M342.92,682.97c-1.55,2.46-8.81,12.51-11.54,14.65h-80.54c30.95-36.59,71.57-80.33,61.3-132.47-1.02-5.22-3.6-8.82-4.81-12.84-.52-1.75.3-2.68,2-2,6.59,2.65,21.01,15.94,25.83,21.69,25.79,30.74,29.2,77.07,7.76,110.97Z"/>
    <path class="cls-1" d="M236.13,517.03c1.55-2.46,8.81-12.51,11.54-14.65h80.54c-30.95,36.59-71.57,80.33-61.3,132.47,1.02,5.22,3.6,8.82,4.81,12.84.52,1.75-.3,2.68-2,2-6.59-2.65-21.01-15.94-25.83-21.69-25.79-30.74-29.2-77.07-7.76-110.97Z"/>
  </g>
</svg>