<?xml version="1.0" encoding="UTF-8"?>
<svg id="Layer_1" data-name="Layer 1" xmlns="http://www.w3.org/2000/svg" viewBox="0 0 1200 1200">
  <defs>
    <style>
      .cls-1 {
        fill: #fff;
      }
    </style>
  </defs>
  <path class="cls-1" d="M697.2,751.04c-2.82,4.48-16.03,22.78-21,26.67h-146.61c56.35-66.61,130.28-146.24,111.58-241.15-1.86-9.5-6.55-16.05-8.76-23.38-.94-3.19.54-4.87,3.64-3.64,12,4.82,38.24,29.02,47.02,39.48,46.95,55.95,53.16,140.3,14.12,202.02Z"/>
  <path class="cls-1" d="M502.8,448.96c2.82-4.48,16.03-22.78,21-26.67h146.61c-56.35,66.61-130.28,146.24-111.58,241.15,1.86,9.5,6.55,16.05,8.76,23.38.94,3.19-.54,4.87-3.64,3.64-12-4.82-38.24-29.02-47.02-39.48-46.95-55.95-53.16-140.3-14.12-202.02Z"/>
</svg>