<?xml version="1.0" encoding="UTF-8"?>
<svg id="Layer_1" data-name="Layer 1" xmlns="http://www.w3.org/2000/svg" viewBox="0 0 1200 1200">
  <defs>
    <style>
      .cls-1 {
        fill: #212c3b;
      }
    </style>
  </defs>
  <path class="cls-1" d="M349.12,597.5c0,15.99-11.75,29.48-42.77,29.48-13.49,0-29.48-2.7-37.96-7.32l9.06-20.23c6.55,3.28,21.58,6.36,28.9,6.36,14.45,0,19.65-2.31,19.65-7.71,0-12.72-56.07-7.71-56.07-41.23,0-21.39,19.07-30.06,42-29.86,13.1.19,22.93,2.89,31.79,7.51l-9.06,20.04c-5.01-3.28-15.41-6.36-27.55-6.36-6.36,0-14.07,1.93-14.07,6.36,0,13.29,56.07,8.67,56.07,42.97Z"/>
  <path class="cls-1" d="M355.09,583.24v-54.53h23.12v55.3c0,12.72,8.86,21.19,21.39,21.19s21.39-8.86,21.39-24.85v-51.64h23.12v94.02c0,29.48-17.15,50.48-51.06,50.48h-20.04v-21.19h22.74c16.95,0,25.05-13.1,25.05-26.59v-6.94c-6.74,5.2-15.22,7.9-24.47,7.9-26.78,0-41.23-16.57-41.23-43.16Z"/>
  <path class="cls-1" d="M531,597.5c0,15.99-11.75,29.48-42.77,29.48-13.49,0-29.48-2.7-37.96-7.32l9.06-20.23c6.55,3.28,21.58,6.36,28.9,6.36,14.45,0,19.65-2.31,19.65-7.71,0-12.72-56.07-7.71-56.07-41.23,0-21.39,19.07-30.06,42-29.86,13.1.19,22.93,2.89,31.79,7.51l-9.06,20.04c-5.01-3.28-15.41-6.36-27.55-6.36-6.36,0-14.06,1.93-14.06,6.36,0,13.29,56.07,8.67,56.07,42.97Z"/>
  <path class="cls-1" d="M604.41,603.66l10.6,19.27c-6.17,2.31-18.88,3.66-27.17,3.66-35.45,0-51.06-24.85-51.06-49.9s15.61-49.9,51.06-49.9c8.28,0,21,1.35,27.17,3.66l-10.6,19.27c-3.08-1.16-12.52-1.73-16.57-1.73-37.38,0-37.38,57.42,0,57.42,4.05,0,13.49-.58,16.57-1.73Z"/>
  <path class="cls-1" d="M719.1,625.24h-23.12v-5.39c-7.51,4.82-16.76,6.55-25.43,6.55-33.52,0-50.09-24.47-49.9-49.52.19-32.56,26.2-49.52,51.44-49.52,23.89,0,47.01,13.49,47.01,45.28v52.6ZM673.05,605.2c15.8,0,23.7-14.07,23.89-28.13.39-18.88-12.33-27.94-25.43-28.13-13.68-.19-27.74,9.44-27.74,27.74,0,14.07,9.63,28.52,29.29,28.52Z"/>
  <path class="cls-1" d="M726.8,673.21v-144.5h51.25c60.5,0,61.65,97.68-2.31,97.68-8.67,0-18.5-2.31-26.01-7.32v54.14h-22.93ZM778.05,549.91h-28.13v33.33c0,16.76,14.64,21.96,25.63,21.96,33.33,0,32.37-55.3,2.5-55.3Z"/>
  <path class="cls-1" d="M931.61,591.33c-5.01,19.27-20.81,35.26-49.13,35.26-35.45,0-51.06-24.85-51.06-49.9s15.61-49.9,51.06-49.9c33.52,0,49.13,24.85,49.13,49.9,0,2.31-.39,4.82-.58,7.13h-76.1c2.7,11.56,11.75,21.58,27.55,21.58,12.14,0,20.62-5.97,24.85-14.06h24.28ZM906.56,564.55c-3.66-9.44-11.95-16.57-24.08-16.57-13.49,0-22.16,7.32-26.01,16.57h50.09Z"/>
</svg>