<?xml version="1.0" encoding="UTF-8"?>
<svg id="Layer_1" data-name="Layer 1" xmlns="http://www.w3.org/2000/svg" viewBox="0 0 100 100">
  <defs>
    <style>
      .cls-1 {
        fill: #fff;
      }
    </style>
  </defs>
  <path class="cls-1" d="M18.36,29.89l1.62-.91c.4.21.82.39,1.26.52l.5,1.79c1.04.19,2.11.19,3.15,0l.5-1.79c.44-.13.86-.31,1.26-.52l1.62.91c.87-.6,1.62-1.35,2.22-2.22l-.91-1.62c.22-.4.39-.83.52-1.26l1.79-.5c.03-.16.05-.33.07-.49h6.16c-.27.4-.41.86-.41,1.34v6c0,1.33,1.08,2.42,2.42,2.42h6v9.55l-3.13,10.9c-1.14,3.97,3.27,4.64,4.57.94l4.16-11.84h5.75v6c0,1.33,1.08,2.42,2.42,2.42s2.42-1.08,2.42-2.42v-8.41c0-1.33-1.08-2.42-2.42-2.42h-6v-4.71h6c1.33,0,2.41-1.09,2.42-2.42v-6c0-.48-.14-.95-.41-1.34h6.17c.02.17.04.33.07.49l1.79.5c.13.44.31.86.52,1.26l-.91,1.62c.6.87,1.35,1.62,2.22,2.22l1.62-.91c.4.21.83.39,1.26.52l.49,1.79c1.04.19,2.11.19,3.15,0l.5-1.79c.44-.13.86-.31,1.26-.52l1.62.91c.87-.6,1.62-1.35,2.22-2.22l-.92-1.62c.22-.4.39-.83.52-1.26l1.79-.5c.19-1.04.19-2.1,0-3.14l-1.79-.5c-.13-.44-.31-.86-.52-1.26l.92-1.62c-.6-.87-1.35-1.62-2.22-2.22l-1.62.91c-.4-.21-.83-.39-1.26-.52l-.5-1.79c-1.04-.19-2.11-.19-3.15,0l-.49,1.79c-.44.13-.86.31-1.26.52l-1.62-.91c-.87.6-1.62,1.35-2.22,2.22l.91,1.62c-.21.4-.39.83-.52,1.26l-1.79.5c-.03.16-.05.33-.07.49h-13.75c.49-3.03-1.12-6.7-4.29-6.7s-4.79,3.68-4.3,6.7h-13.76c-.02-.17-.04-.33-.07-.49l-1.79-.5c-.13-.44-.31-.86-.52-1.26l.91-1.62c-.6-.87-1.35-1.62-2.22-2.22l-1.62.91c-.4-.21-.82-.39-1.26-.52l-.5-1.79c-1.04-.19-2.11-.19-3.15,0l-.5,1.79c-.44.13-.86.31-1.26.52l-1.62-.91c-.87.6-1.62,1.36-2.22,2.22l.92,1.62c-.21.4-.39.83-.52,1.26l-1.79.5c-.19,1.04-.19,2.1,0,3.14l1.79.5c.13.44.31.86.52,1.26l-.92,1.62c.6.87,1.36,1.62,2.22,2.22h0ZM76.7,18.85c2.14,0,3.87,1.74,3.87,3.88,0,2.14-1.74,3.87-3.88,3.87-2.14,0-3.87-1.73-3.87-3.87,0-2.14,1.73-3.87,3.87-3.87,0,0,0,0,0,0ZM50,25.56c1.62,0,2.76-.71,3.48-1.76h4.4c-.27.4-.41.86-.41,1.34v3.58h-14.92v-3.58c0-.48-.14-.95-.41-1.34h4.4c.71,1.05,1.85,1.76,3.48,1.76h0ZM23.31,18.85c2.14,0,3.87,1.74,3.87,3.87,0,2.14-1.74,3.87-3.87,3.87-2.14,0-3.87-1.73-3.87-3.87,0-2.14,1.73-3.87,3.87-3.87h0ZM84.36,84.74c0,.6-.48,1.08-1.08,1.08H17.61c-.6,0-1.08-.48-1.08-1.08s.48-1.08,1.08-1.08h10.38v-14.05c0-.6.48-1.08,1.08-1.08h9.47c.6,0,1.08.48,1.08,1.08v14.05h2.15v-20.79c0-.6.49-1.08,1.08-1.08h9.46c.6,0,1.08.48,1.08,1.08v20.79h2.16v-27.54c0-.6.48-1.08,1.08-1.08h9.47c.6,0,1.08.48,1.08,1.08v27.54h2.16v-34.29c0-.6.48-1.08,1.08-1.08h9.47c.6,0,1.08.48,1.08,1.08v34.29h2.31c.6,0,1.08.48,1.08,1.08h0Z"/>
</svg>