<?xml version="1.0" encoding="UTF-8"?>
<svg id="Layer_1" data-name="Layer 1" xmlns="http://www.w3.org/2000/svg" viewBox="0 0 100 100">
  <defs>
    <style>
      .cls-1 {
        fill: #fff;
      }
    </style>
  </defs>
  <g id="_08" data-name="08">
    <path class="cls-1" d="M78.29,70.57c-1.19,0-2.3.29-3.31.78,0,0,0-.02-.01-.02l-6.6-6.6,4.43-7.6c.34-.59.44-1.3.26-1.96-.18-.66-.61-1.23-1.21-1.57l-1.32-.76c.14-.96.21-1.91.21-2.84s-.07-1.88-.21-2.84l1.32-.76c.6-.34,1.03-.9,1.21-1.57.18-.66.08-1.37-.26-1.96l-4.43-7.6,6.6-6.6s0-.02.01-.02c1.01.48,2.12.78,3.31.78,4.25,0,7.71-3.46,7.71-7.71s-3.46-7.71-7.71-7.71-7.71,3.46-7.71,7.71c0,1.19.29,2.3.78,3.31,0,0-.02,0-.02.01l-8.69,8.69c-1.5-1.14-3.14-2.09-4.88-2.79v-1.5c0-1.42-1.15-2.57-2.57-2.57h-10.38c-1.42,0-2.57,1.15-2.57,2.57v1.5c-1.74.7-3.38,1.65-4.88,2.79l-8.69-8.69s-.02,0-.02-.01c.48-1.01.78-2.12.78-3.31,0-4.25-3.46-7.71-7.71-7.71s-7.71,3.46-7.71,7.71,3.46,7.71,7.71,7.71c1.19,0,2.3-.29,3.31-.78,0,0,0,.02.01.02l6.6,6.6-4.43,7.6c-.34.59-.44,1.3-.26,1.96.18.66.61,1.23,1.21,1.57l1.32.76c-.14.96-.21,1.91-.21,2.84s.07,1.89.21,2.84l-1.32.76c-.6.34-1.03.91-1.21,1.57-.18.66-.08,1.37.26,1.96l4.43,7.6-6.6,6.6s0,.02-.01.02c-1.01-.48-2.12-.78-3.31-.78-4.25,0-7.71,3.46-7.71,7.71s3.46,7.71,7.71,7.71,7.71-3.46,7.71-7.71c0-1.19-.29-2.3-.78-3.31,0,0,.02,0,.02-.01l8.69-8.69c1.5,1.15,3.14,2.09,4.88,2.79v1.5c0,1.42,1.15,2.57,2.57,2.57h10.38c1.42,0,2.57-1.15,2.57-2.57v-1.5c1.74-.7,3.38-1.65,4.88-2.79l8.69,8.69s.02,0,.02.01c-.48,1.01-.78,2.12-.78,3.31,0,4.25,3.46,7.71,7.71,7.71s7.71-3.46,7.71-7.71-3.46-7.71-7.71-7.71ZM64.57,51.92c-.26.24-6.58,5.8-14.57,5.8s-14.3-5.56-14.57-5.8c-.55-.49-.86-1.19-.86-1.92s.31-1.43.86-1.92c.26-.24,6.58-5.8,14.57-5.8s14.31,5.56,14.57,5.8c.55.49.86,1.19.86,1.92s-.31,1.43-.86,1.92Z"/>
    <circle class="cls-1" cx="50" cy="50" r="5.14"/>
  </g>
</svg>