<?xml version="1.0" encoding="UTF-8"?>
<svg id="Layer_1" data-name="Layer 1" xmlns="http://www.w3.org/2000/svg" viewBox="0 0 100 100">
  <defs>
    <style>
      .cls-1 {
        fill: #fff;
      }
    </style>
  </defs>
  <path class="cls-1" d="M31.83,20.3c-.35,0-.68-.05-1-.13v6.72h2v-6.72c-.32.08-.65.13-1,.13Z"/>
  <path class="cls-1" d="M70.86,20.3c-.35,0-.68-.05-1-.13v6.72h2v-6.72c-.32.08-.65.13-1,.13Z"/>
  <path class="cls-1" d="M36.9,68.63h1.95c.05-.83.18-1.65.4-2.45l-1.83-1.05c-.9-.52-1.2-1.67-.68-2.57l1.35-2.32c.52-.9,1.67-1.2,2.57-.68l1.83,1.05c1.57-1.58,3.5-2.68,5.63-3.25v-2.12c0-1.03.85-1.88,1.88-1.88h2.68c1.03,0,1.88.85,1.88,1.88v2.12c2.13.57,4.07,1.68,5.63,3.25l1.83-1.07c.9-.52,2.05-.22,2.57.68l1.35,2.32c.52.9.22,2.05-.68,2.57l-1.83,1.05c.22.8.35,1.62.4,2.45h1.95c.92,0,1.67-.75,1.67-1.67v-17.62c0-.92-.75-1.67-1.67-1.67h-28.88c-.92,0-1.67.75-1.67,1.67v17.62c0,.93.73,1.68,1.65,1.68h0Z"/>
  <path class="cls-1" d="M42.23,46.09h18.22v-3.62h-18.22v3.62Z"/>
  <path class="cls-1" d="M29.51,28.9v3.57c0,.23.18.42.42.42h3.8v-4.4h-3.8c-.22,0-.42.2-.42.42Z"/>
  <path class="cls-1" d="M57.75,32.61c1.07,0,1.92-.87,1.92-1.92s-.87-1.92-1.92-1.92-1.92.87-1.92,1.92.87,1.92,1.92,1.92Z"/>
  <path class="cls-1" d="M39.16,40.87h24.36c2.12,0,3.83-1.72,3.83-3.83v-12.7c0-2.12-1.72-3.83-3.83-3.83h-24.36c-2.12,0-3.83,1.72-3.83,3.83v12.7c0,2.12,1.72,3.83,3.83,3.83h0ZM37.2,24.74c0-1.3,1.05-2.35,2.35-2.35h23.57c1.3,0,2.35,1.05,2.35,2.35v11.92c0,1.3-1.05,2.35-2.35,2.35h-23.56c-1.3,0-2.35-1.05-2.35-2.35v-11.92h-.02Z"/>
  <path class="cls-1" d="M72.76,32.89c.23,0,.42-.2.42-.42v-3.57c0-.23-.2-.42-.42-.42h-3.8v4.4h3.8Z"/>
  <path class="cls-1" d="M44.93,32.61c1.07,0,1.92-.87,1.92-1.92s-.87-1.92-1.92-1.92-1.92.87-1.92,1.92.87,1.92,1.92,1.92Z"/>
  <path class="cls-1" d="M39.56,37.41h23.57c.42,0,.75-.33.75-.75v-11.92c0-.42-.33-.75-.75-.75h-23.57c-.42,0-.75.33-.75.75v11.92c-.02.42.33.75.75.75ZM57.75,27.17c1.93,0,3.52,1.58,3.52,3.52s-1.58,3.52-3.52,3.52-3.52-1.58-3.52-3.52,1.58-3.52,3.52-3.52ZM44.93,27.17c1.93,0,3.52,1.58,3.52,3.52s-1.58,3.52-3.52,3.52-3.52-1.58-3.52-3.52,1.58-3.52,3.52-3.52Z"/>
  <path class="cls-1" d="M59.45,76.74c.25-.28.67-.35,1-.15l2.38,1.37c.13.08.32.03.38-.1l1.33-2.32c.08-.13.03-.3-.1-.38l-2.38-1.37c-.33-.18-.48-.58-.37-.93.72-2.18.72-4.58,0-6.77-.12-.37.03-.75.37-.93l2.38-1.37c.13-.08.18-.25.1-.38l-1.33-2.32c-.08-.13-.25-.18-.38-.1l-2.38,1.37c-.33.18-.75.12-1-.15-1.57-1.73-3.58-2.9-5.85-3.38-.37-.08-.63-.4-.63-.78v-2.75c0-.15-.13-.28-.28-.28h-2.68c-.15,0-.28.13-.28.28v2.75c0,.38-.27.7-.63.78-2.27.48-4.3,1.65-5.85,3.38-.25.28-.67.35-1,.15l-2.38-1.37c-.13-.08-.32-.03-.38.1l-1.33,2.32c-.08.13-.03.3.1.38l2.38,1.37c.33.18.48.58.37.93-.72,2.2-.72,4.57,0,6.77.12.37-.03.75-.37.93l-2.38,1.37c-.13.08-.18.25-.1.38l1.35,2.32c.08.13.25.18.38.1l2.38-1.37c.13-.07.27-.1.4-.1.22,0,.43.1.6.27,1.57,1.73,3.58,2.9,5.85,3.38.37.08.63.4.63.78v2.75c0,.15.13.28.28.28h2.68c.15,0,.28-.13.28-.28v-2.75c0-.38.27-.7.63-.78,2.25-.5,4.28-1.67,5.84-3.4ZM51.35,75.33c-3.25,0-5.9-2.65-5.9-5.9s2.65-5.9,5.9-5.9,5.9,2.65,5.9,5.9-2.65,5.9-5.9,5.9Z"/>
  <path class="cls-1" d="M70.86,18.7c1.3,0,2.35-1.05,2.35-2.35s-1.05-2.35-2.35-2.35-2.35,1.05-2.35,2.35,1.05,2.35,2.35,2.35Z"/>
  <path class="cls-1" d="M31.83,18.7c1.3,0,2.35-1.05,2.35-2.35s-1.05-2.35-2.35-2.35-2.35,1.05-2.35,2.35,1.05,2.35,2.35,2.35Z"/>
  <path class="cls-1" d="M77.58,80.2c-1.53,0-2.8,1.25-2.8,2.8s1.25,2.8,2.8,2.8,2.8-1.25,2.8-2.8-1.25-2.8-2.8-2.8Z"/>
  <path class="cls-1" d="M25.11,80.2c-1.53,0-2.78,1.25-2.78,2.8s1.25,2.8,2.78,2.8,2.8-1.25,2.8-2.8c-.02-1.55-1.27-2.8-2.8-2.8Z"/>
  <path class="cls-1" d="M77.58,60.96c1.53,0,2.8-1.25,2.8-2.8s-1.25-2.8-2.8-2.8-2.8,1.25-2.8,2.8c.02,1.55,1.27,2.8,2.8,2.8Z"/>
  <path class="cls-1" d="M83.31,46.83c1.53,0,2.8-1.25,2.8-2.8s-1.25-2.8-2.8-2.8-2.78,1.25-2.78,2.8,1.25,2.8,2.78,2.8Z"/>
  <path class="cls-1" d="M83.31,69.52c-1.53,0-2.78,1.25-2.78,2.8s1.25,2.8,2.78,2.8,2.8-1.25,2.8-2.8-1.25-2.8-2.8-2.8Z"/>
  <path class="cls-1" d="M25.11,55.38c-1.53,0-2.78,1.25-2.78,2.8s1.25,2.8,2.78,2.8,2.8-1.25,2.8-2.8c-.02-1.55-1.27-2.8-2.8-2.8Z"/>
  <path class="cls-1" d="M19.37,46.83c1.53,0,2.8-1.25,2.8-2.8s-1.25-2.8-2.8-2.8-2.78,1.25-2.78,2.8c-.02,1.55,1.25,2.8,2.78,2.8Z"/>
  <path class="cls-1" d="M19.37,69.52c-1.53,0-2.78,1.25-2.78,2.8s1.25,2.8,2.78,2.8,2.8-1.25,2.8-2.8-1.27-2.8-2.8-2.8Z"/>
  <path class="cls-1" d="M80.28,61.63c-.63.48-1.38.82-2.22.9l2.55,6.3c.63-.48,1.38-.82,2.22-.9l-2.55-6.3Z"/>
  <path class="cls-1" d="M82.84,48.39c-.83-.08-1.6-.42-2.22-.9l-2.57,6.3c.83.08,1.6.42,2.22.9l2.57-6.3Z"/>
  <path class="cls-1" d="M69.04,56.96v2.4h4.3c-.12-.38-.17-.78-.17-1.2s.05-.82.17-1.2h-4.3Z"/>
  <path class="cls-1" d="M54.57,81.79v2.4h18.79c-.12-.38-.17-.78-.17-1.2s.05-.82.17-1.2h-18.79Z"/>
  <path class="cls-1" d="M24.63,62.53c-.83-.08-1.6-.42-2.22-.9l-2.55,6.3c.83.08,1.6.42,2.22.9l2.55-6.3Z"/>
  <path class="cls-1" d="M19.86,48.39l2.55,6.3c.63-.48,1.38-.82,2.22-.9l-2.55-6.3c-.63.48-1.4.82-2.22.9Z"/>
  <path class="cls-1" d="M29.33,81.79c.12.38.17.78.17,1.2s-.05.82-.17,1.2h18.79v-2.4h-18.79Z"/>
  <path class="cls-1" d="M33.65,59.36v-2.4h-4.3c.12.38.17.78.17,1.2s-.05.82-.17,1.2h4.3Z"/>
</svg>